<svg id="Capa_1" enable-background="new 0 0 497 497" height="512" viewBox="0 0 497 497" width="512" xmlns="http://www.w3.org/2000/svg"><g><path d="m486.636 226.913c11.097-10.196 6.652-28.761-9.884-39.57l-61.16-105.934-4.157-15.768c-5.365-10.278-15.137-15.726-25.17-12.577-3.181-17.793-20.394-27.731-37.396-21.591-2.219-9.946-11.309-15.642-22.411-15.536l-16.799 4.311-122.315-.001c-17.628-8.916-35.928-3.484-39.21 11.224-17.002-6.141-34.215 3.797-37.396 21.59-4.078-1.28-8.112-1.137-11.827.169-2.136 6.051-5.742 13.558-5.742 13.558l230.88 403.064c11.639 0 25.297-10.641 25.629-14.299 18.622 2.993 31.591.998 38.242-21.615 18.29 5.653 27.675-18.348 27.675-18.348l55.082-105.043 17.947-12.827c5.922-9.673 5.633-20.622-1.988-27.625 13.819-11.654 13.818-31.53 0-43.182z" fill="#ffe07d"/><path d="m438.799 261.324s-.347-5.065-3.256-12.823c9.667-24.13-.095-51.279-.095-51.279s6.653-34.083 8.328-66.998l-28.183-48.816c-.33-5.962-1.833-11.316-4.157-15.768-19.366-.651-41.824 10.504-55.442 25.425 0 0-4.653-3.325-14.294-3.656-4.323-5.986-9.976-9.646-9.976-9.646s4.326-12.306 4.326-28.71c0-14.182-3.815-25.928-9.591-33.117-5.316.051-11.091 1.425-16.799 4.311h-26.307c-35.15 17.412-88.196 47.649-88.196 47.649s-25.938 3.104-38.353 20.84c0 0-11.198 1.443-15.631 4.104-16.406-16.849-35.137-24.943-44.005-26.052 0 0-.393-7.507 1.742-13.558-9.383 3.3-16.717 14.045-17.5 28.176l-61.162 105.934c-16.536 10.809-20.982 29.374-9.884 39.57-13.818 11.651-13.819 31.527 0 43.181-11.097 10.196-6.651 28.76 9.884 39.569l61.157 105.929c1.093 19.724 14.947 32.857 29.326 28.345 3.183 17.795 20.396 27.732 37.396 21.591 3.281 14.709 21.582 20.141 39.211 11.226h122.325c17.629 8.916 35.93 3.483 39.211-11.226 17 6.141 34.213-3.796 37.396-21.591 14.379 4.512 28.233-8.621 29.326-28.345l-3.067-7.947c-.333 7.316-6.318 21.948-24.608 16.294-6.651 22.613-19.62 24.608-38.242 21.615-.333 3.658-3.99 14.299-15.629 14.299 8.314-35.582-17.292-75.819-17.292-75.819s104.427-38.238 152.381-61.18l7.614-13.188c5.179-3.385 9.172-7.532 11.873-11.944-6.954-13.245-22.329-31.769-49.827-36.395z" fill="#ffd064"/><path d="m199.473 453.171c-19.335 14.436-35.065 9.063-38.347-5.646-17 6.141-34.213-3.796-37.396-21.591-14.379 4.512-25.449-8.147-24.281-30.513l85.395-36.706z" fill="#ffe07d"/><path d="m86.926 261.516c-25.273 0-48.507 6.242-62.503 19.984.557-4.286 2.503-8.249 5.941-11.408-13.819-11.654-13.818-31.53 0-43.181-11.097-10.196-6.651-29.451 9.884-32.327l91.282 49.339z" fill="#ffe07d"/><path d="m477.774 157.132v-.001c-2.646-4.522-6.813-7.787-12.248-9 6.141-17.002-3.798-34.215-21.591-37.396 7.575-24.138-34.573-46.788-74.16-10.084l-6.507 25.742-39.346-8.528-12.548-33.554c23.996-62.552-22.639-94.241-41.286-73.946-11.651-13.818-31.527-13.819-43.181 0-3.767-4.1-8.677-6.076-13.915-6.107-4.646 6.331-24.627 18.635-24.627 42.578 0 27.275 12.068 55.849 18.638 69.387l-33.927 1.641-35.333-5.91c-19.113-23.593-39.99-31.453-56.338-30.546-11.185 5.184-19.633 15.843-16.343 26.326-17.795 3.183-27.732 20.396-21.591 37.396-26.899 6.001-16.578 61.594 40.836 63.257 0 0 52.974 28.536 98.651 49.953l-85.306-9.84-22.782 27.643c-16.783 2.662-29.567 8.268-38.873 15.249-10.033 21.661-11.543 48.128 3.477 51.479-6.141 17 3.796 34.213 21.591 37.396-8.252 26.296 47.854 38.271 75.122-9.66l46.942-16.897 16.344 45.607c-27.876 47.58 9.811 96.39 28.458 76.096 11.654 13.819 31.53 13.819 43.181.001 10.412 11.333 32.752-1.915 46.494-21.438 1.391-11.549-.146-25.423-6.231-41.286l12.547-33.551c0-.001 0-.001-.001-.002l37.727-11.731c30.146 48.891 85.538 33.57 77.286 7.274 17.793-3.181 27.732-20.393 21.591-37.396 10.725-2.393 17.331-15.343 16.226-27.623 0-.001 0-.002 0-.003-7.39-14.61-24.634-28.759-54.622-33.515l-22.785-27.642-41.238-8.595c47.938-20.19 92.748-39.231 96.654-41.485 20.736-11.971 19.855-34.1 23.014-41.289z" fill="#ebb34c"/><path d="m422.13 220.857c52.8-8.373 66.094-45.867 55.645-63.726v.001c-3.16 7.189-8.825 21.984-29.561 33.955-8.64 4.988-18.032 7.333-18.032 7.333-10.136-17.557-23.078-27.364-46.439-28.003-.001.002-.002.003-.002.005v-.005h.002c11.127-20.551 9.105-36.662-1.032-54.219-3.713-6.431-8.467-11.603-12.935-15.547-3.54 3.282-7.06 7.029-10.522 11.303l-35.331 5.911-57.527 19.987c-15.471-56.746-34.106-71.734-65.364-71.734 0 0-2.665-9.306-2.665-19.283 0-23.943 9.981-36.247 14.627-42.578-20.692-.122-46.518 30.138-27.369 80.053l-12.546 33.553-1.975 65.979s-21.948-13.14-46.223-13.14-34.584 30.764-34.584 30.764c-57.414-1.663-67.721-47.336-40.822-53.338-6.141-17 3.796-34.213 21.591-37.396-3.29-10.483-.842-24.142 10.343-29.326-19.724 1.094-32.855 14.948-28.343 29.326-17.795 3.183-27.732 20.396-21.591 37.396-26.899 6.001-22.773 62.233 43.397 72.728l22.785 27.642 60.295 52.28-22.096 57.935c-27.268 47.931-74.041 42.848-65.789 16.552-17.795-3.183-27.732-20.396-21.591-37.396-15.019-3.351-22.51-24.818-12.477-46.479-27.387 20.541-24.6 53-4.523 57.479-6.141 17 3.796 34.213 21.591 37.396-8.252 26.296 42.509 50.838 84.681-1.22l35.331-5.911 12.548 33.554c-23.997 62.552 22.637 94.24 41.284 73.946 11.654 13.819 31.53 13.818 43.181 0 13.918 15.148 43.423 1.33 47.517-32.66-13.742 19.523-36.082 23.771-46.494 12.438-11.652 13.818-31.527 13.819-43.181-.001-18.647 20.294-46.435-17.672-18.559-65.252l39.126-48.103 75.423 26.078c0 .001 0 .001.001.002l.001-.003 35.331 5.911c42.173 52.057 92.935 27.515 84.682 1.219 17.793-3.181 27.731-20.394 21.591-37.396 14.709-3.282 20.141-21.583 11.224-39.211v.003c1.105 12.28-9.501 21.23-20.226 23.623 6.14 17.003-3.798 34.215-21.591 37.396 8.252 26.296-36.456 40.206-66.603-8.685 0 0 21.488-24.309 9.351-45.333-12.137-21.023-34.49-33.461-34.49-33.461l56.152-34.699z" fill="#e69824"/><path d="m157.945 300.781c-53.022 49.609-12.124 81.014 14.488 80.923 8.829 15.415 40.903 30.926 63.299 13.466 5.712-9.837 10.244-23.537 12.768-42.112 0 0 21.32 52.922 50.631 52.922 22.281 0 26.936-7.482 34.543-15.629 10.076.034 35.125-15.962 41.98-31.86 1.445-15.498-7.615-35.276-36.603-57.713-.003-.001-90.551-156.843-90.551-156.847-12.001-88.289-69.242-66.76-84.02-40.96-6.9-.024-14.743 2.051-21.841 5.929-11.773 16.415-8.08 48.292 17.823 72.448 0 0-2.521 14.869-2.524 14.867-28.725-11.756-48.645-12.089-61.789-6.452-5.806 13.404-9.708 29.958-3.494 40.636-14.955 25.697-12.008 84.134 65.29 70.382z" fill="#ffe07d"/><path d="m416.542 248.501c13.622-23.408 6.549-75.544-57.141-59.144l-10.173 109.766c20.118 5.859 52.326 4.877 69.62-9.878 5.81-13.405 3.909-30.064-2.306-40.744z" fill="#ffe07d"/><path d="m355.847 181.347c44.985-46.587 3.627-78.468-23.325-78.376-9.083-15.859-34.209-30.093-55.012-18.212-10.746 9.165-20.753 41.757-22.939 57.847z" fill="#ffe07d"/><g fill="#ffd064"><path d="m175.945 282.781c-82.467 33.755-92.442-26.584-77.488-52.282-6.214-10.678-8.115-27.332-2.309-40.736-24.586 10.544-25.436 41.991-15.691 58.736-14.955 25.698-4.979 86.037 77.487 52.282.003-.001 18.001-18 18.001-18z"/><path d="m234.175 183.79c-20.507-37.994-56.372-33.369-70.092-15.606-25.903-24.155-28.651-44.667-21.445-59.285-23.488 12.832-38.814 45.431 15.299 87.315.002.001 76.238-12.424 76.238-12.424z"/><path d="m157.945 300.781c-70.467 54.54-23.2 93.349 6.533 93.247 11.669 20.373 49.813 38.068 71.254 1.142-20.44 10.145-44.425-3.728-53.254-19.142-26.612.091-66.816-29.616-24.533-75.247z"/><path d="m341.918 376.051c-6.671 11.647-17.188 24.971-35.032 22.195-17.455-2.715-34.453-19.523-40.387-63.188l-18 18c11.999 88.302 69.244 66.771 84.022 40.97 17.5.06 41.065-13.364 43.132-35.538-10.391 13.165-23.658 17.595-33.735 17.561z"/><path d="m339.051 196.222c6.591-5.101 12.155-10.068 16.796-14.875-3.66-21.323-28.406-39.325-53.169-27.66-1.33-30.594-26.753-33.684-35.663-31.284 2.186-16.09 5.863-28.4 10.495-37.643-13.041 7.448-24.385 25.153-29.01 59.177 0 .002 90.533 156.833 90.55 156.841 48.176 19.711 71.628 7.315 79.797-11.533-10.478 4.491-25.263 5.188-45.381-.671 6.361-9.847 2.592-31.794-13.257-40.066 5.474-3.568 26.749-33.909-.808-59.151-6.232 1.605-13 3.857-20.35 6.865z"/></g><path d="m285.862 183.779c31.904-33.746 59.836-4.402 53.188 12.442 17.914 2.665 29.361 41.538-15.84 52.288l-37.341 64.709c13.273 44.503-26.105 54.021-37.368 39.841-11.265 14.182-50.654 4.659-37.362-39.862l-37.369-64.693c-45.177-10.757-33.731-49.618-15.819-52.283-6.649-16.847 21.292-46.197 53.203-12.426z" fill="#ebb34c"/><path d="m224.085 296.104c-36.757 58.939-73.673 23.773-66.135 4.675-20.308-3.021-32.305-52.574 37.116-54.937l24.415-42.289c-32.664-61.302 16.249-75.689 29.019-59.612 12.77-16.077 61.683-1.69 29.019 59.612l24.415 42.289c69.421 2.363 57.424 51.916 37.116 54.937 7.538 19.098-29.378 54.264-66.135-4.675z" fill="#ebb34c"/><path d="m293.158 253.619c13.422-7.749 18.312-24.408 10.922-37.208s-24.262-16.895-37.684-9.145h-35.792c-13.422-7.749-30.294-3.655-37.684 9.145s-2.5 29.459 10.922 37.208l17.896 30.997c0 15.498 11.982 28.062 26.762 28.062s26.762-12.564 26.762-28.062z" fill="#e69824"/><path d="m266.396 207.265c0 9.884-5.919 20.49-17.896 41.235-11.977-20.745-17.896-31.351-17.896-41.235s8.012-17.896 17.896-17.896 17.896 8.013 17.896 17.896z" fill="#ffd064"/><path d="m203.842 253.619c8.56-4.942 20.704-5.119 44.658-5.119-11.977 20.745-18.203 31.174-26.762 36.116-8.56 4.942-19.505 2.009-24.447-6.55-4.942-8.56-2.009-19.505 6.551-24.447z" fill="#ffd064"/><path d="m275.262 284.616c-8.56-4.942-14.785-15.371-26.762-36.116 23.954 0 36.099.177 44.658 5.119 8.56 4.942 11.492 15.887 6.55 24.447-4.941 8.559-15.886 11.492-24.446 6.55z" fill="#ffd064"/></g></svg>