<?xml version="1.0" encoding="utf-8"?>
<!-- Generator: Adobe Illustrator 25.0.0, SVG Export Plug-In . SVG Version: 6.00 Build 0)  -->
<svg version="1.1" id="Capa_1" xmlns="http://www.w3.org/2000/svg" xmlns:xlink="http://www.w3.org/1999/xlink" x="0px" y="0px"
	 viewBox="0 0 850.39 1133.86" style="enable-background:new 0 0 850.39 1133.86;" xml:space="preserve">
<style type="text/css">
	.st0{fill:#F39200;}
	.st1{fill:#E94E1B;}
	.st2{fill:#E6332A;}
	.st3{fill:none;stroke:#29235C;stroke-width:5;stroke-linecap:round;stroke-miterlimit:10;}
</style>
<rect x="130.6" y="279.93" class="st0" width="264" height="112"/>
<rect x="130.6" y="413.93" class="st1" width="264" height="140"/>
<rect x="130.6" y="589.93" class="st2" width="264" height="264"/>
<rect x="455.8" y="741.93" transform="matrix(-1 -1.224647e-16 1.224647e-16 -1 1175.5906 1595.8583)" class="st0" width="264" height="112"/>
<rect x="455.8" y="579.93" transform="matrix(-1 -1.224647e-16 1.224647e-16 -1 1175.5906 1299.8583)" class="st1" width="264" height="140"/>
<rect x="455.8" y="279.93" transform="matrix(-1 -1.224647e-16 1.224647e-16 -1 1175.5906 823.8583)" class="st2" width="264" height="264"/>
<path class="st3" d="M68,450c0,0,118-156,370-80s314-158,314-158"/>
<path class="st3" d="M68,749.65c0,0,118-156,370-80s314-158,314-158"/>
</svg>
